<?xml version="1.0" standalone="no"?>
<!DOCTYPE svg PUBLIC "-//W3C//DTD SVG 20010904//EN"
 "http://www.w3.org/TR/2001/REC-SVG-20010904/DTD/svg10.dtd">
<svg version="1.0" xmlns="http://www.w3.org/2000/svg"
 width="256.000000pt" height="256.000000pt" viewBox="0 0 256.000000 256.000000"
 preserveAspectRatio="xMidYMid meet">
<metadata>
Created by potrace 1.14, written by Peter Selinger 2001-2017
</metadata>
<g transform="translate(0.000000,256.000000) scale(0.100000,-0.100000)"
fill="#000000" stroke="none">
<path d="M738 2234 c-2 -1 -26 -5 -53 -7 -124 -13 -171 -43 -367 -239 l-161
-161 279 -274 278 -274 -71 -72 c-167 -168 -420 -426 -447 -456 l-30 -31 155
-153 c85 -85 172 -165 194 -179 57 -36 132 -58 201 -60 157 -4 216 28 414 226
l155 155 160 -157 c165 -162 218 -199 310 -217 121 -24 243 4 336 76 39 31
309 298 312 310 1 4 -121 132 -272 284 -163 165 -269 280 -263 284 20 12 542
531 542 539 0 10 -310 315 -345 339 -41 28 -151 67 -170 60 -8 -4 -15 -3 -15
1 0 10 -111 -1 -167 -17 -67 -18 -132 -69 -283 -221 l-141 -142 -152 149
c-164 162 -188 181 -257 207 -45 16 -137 36 -142 30z"/>
</g>
</svg>
